<svg width="34" height="34" viewBox="0 0 34 34" fill="none" xmlns="http://www.w3.org/2000/svg">
<path d="M26.2284 3.36033L31.1131 8.24358C31.4952 8.62588 31.76 9.10951 31.8762 9.63739C31.9924 10.1653 31.9552 10.7154 31.769 11.2228L29.2714 18.0398C29.2005 18.2331 29.0883 18.4086 28.9427 18.5541L17.1518 30.345C16.8887 30.6082 16.5763 30.817 16.2325 30.9595C15.8886 31.1019 15.5201 31.1753 15.1479 31.1753C14.7758 31.1753 14.4072 31.1019 14.0634 30.9595C13.7196 30.817 13.4072 30.6082 13.1441 30.345L4.12839 21.3293C3.59722 20.798 3.29883 20.0775 3.29883 19.3262C3.29883 18.5749 3.59722 17.8543 4.12839 17.323L15.9335 5.51791C16.0794 5.37212 16.2554 5.25996 16.4491 5.18925L23.252 2.703C23.7592 2.51752 24.3088 2.48085 24.8361 2.59731C25.3634 2.71377 25.8465 2.9785 26.2284 3.36033ZM17.7156 7.7435L6.13156 19.3262L15.1472 28.3418L26.7186 16.7719L29.1085 10.2482L24.2252 5.3635L17.7156 7.7435ZM21.6596 12.8152C21.4532 12.62 21.2881 12.3855 21.1739 12.1254C21.0597 11.8654 20.9987 11.5851 20.9947 11.3011C20.9907 11.0171 21.0437 10.7351 21.1505 10.4719C21.2573 10.2088 21.4158 9.96966 21.6166 9.76877C21.8174 9.56788 22.0564 9.40928 22.3195 9.30235C22.5827 9.19542 22.8646 9.14233 23.1486 9.14621C23.4326 9.1501 23.7129 9.21088 23.973 9.32496C24.2331 9.43904 24.4677 9.60411 24.663 9.81041C25.0383 10.2132 25.2427 10.746 25.233 11.2966C25.2233 11.8471 25.0002 12.3723 24.6109 12.7617C24.2216 13.151 23.6963 13.374 23.1458 13.3837C22.5953 13.3935 22.0625 13.1891 21.6596 12.8137V12.8152Z" fill="#F8F8F8"/>
</svg>
