<svg width="30" height="30" viewBox="0 0 30 30" fill="none" xmlns="http://www.w3.org/2000/svg">
<path d="M13.1256 20.625C14.1105 20.625 15.0858 20.431 15.9958 20.0541C16.9057 19.6772 17.7325 19.1247 18.4289 18.4283C19.1254 17.7319 19.6778 16.9051 20.0547 15.9951C20.4316 15.0852 20.6256 14.1099 20.6256 13.125C20.6256 12.1401 20.4316 11.1648 20.0547 10.2549C19.6778 9.34493 19.1254 8.51814 18.4289 7.8217C17.7325 7.12526 16.9057 6.57282 15.9958 6.19591C15.0858 5.819 14.1105 5.625 13.1256 5.625C11.1365 5.625 9.22885 6.41518 7.82233 7.8217C6.41581 9.22822 5.62563 11.1359 5.62563 13.125C5.62563 15.1141 6.41581 17.0218 7.82233 18.4283C9.22885 19.8348 11.1365 20.625 13.1256 20.625ZM21.0256 19.2575L25.5006 23.7325C25.6199 23.8479 25.7151 23.9859 25.7805 24.1384C25.8459 24.291 25.8802 24.455 25.8815 24.621C25.8829 24.787 25.8511 24.9516 25.7882 25.1051C25.7252 25.2587 25.6323 25.3982 25.5148 25.5155C25.3974 25.6328 25.2578 25.7255 25.1041 25.7882C24.9504 25.851 24.7858 25.8825 24.6199 25.8809C24.4539 25.8794 24.2899 25.8448 24.1374 25.7792C23.985 25.7135 23.8471 25.6182 23.7319 25.4988L19.2569 21.0238C17.2475 22.5836 14.7191 23.319 12.1866 23.0802C9.65402 22.8415 7.30764 21.6466 5.62507 19.7388C3.9425 17.831 3.05023 15.3537 3.12991 12.8112C3.20959 10.2686 4.25522 7.85203 6.05394 6.05331C7.85266 4.25459 10.2693 3.20896 12.8118 3.12929C15.3543 3.04961 17.8316 3.94187 19.7395 5.62444C21.6473 7.30701 22.8422 9.6534 23.0809 12.1859C23.3196 14.7185 22.5842 17.2468 21.0244 19.2563L21.0256 19.2575Z" fill="#585858"/>
</svg>
