<svg width="31" height="31" viewBox="0 0 31 31" fill="none" xmlns="http://www.w3.org/2000/svg">
<g clip-path="url(#clip0)">
<path d="M12.9167 12.9167C11.889 12.9167 10.9033 13.3249 10.1766 14.0516C9.44992 14.7784 9.04167 15.764 9.04167 16.7917C9.04167 17.8194 9.44992 18.805 10.1766 19.5317C10.9033 20.2584 11.889 20.6667 12.9167 20.6667H18.0833C19.111 20.6667 20.0967 20.2584 20.8234 19.5317C21.5501 18.805 21.9583 17.8194 21.9583 16.7917C21.9583 15.764 21.5501 14.7784 20.8234 14.0516C20.0967 13.3249 19.111 12.9167 18.0833 12.9167H12.9167ZM19.375 16.7917C19.375 17.1343 19.2389 17.4628 18.9967 17.705C18.7544 17.9473 18.4259 18.0834 18.0833 18.0834H12.9167C12.5741 18.0834 12.2456 17.9473 12.0033 17.705C11.7611 17.4628 11.625 17.1343 11.625 16.7917C11.625 16.4491 11.7611 16.1206 12.0033 15.8783C12.2456 15.6361 12.5741 15.5 12.9167 15.5H18.0833C18.4259 15.5 18.7544 15.6361 18.9967 15.8783C19.2389 16.1206 19.375 16.4491 19.375 16.7917ZM21.9583 24.5417C21.9583 24.8843 21.8223 25.2128 21.58 25.455C21.3378 25.6973 21.0092 25.8334 20.6667 25.8334H10.3333C9.99076 25.8334 9.66222 25.6973 9.41999 25.455C9.17775 25.2128 9.04167 24.8843 9.04167 24.5417C9.04167 24.1991 9.17775 23.8706 9.41999 23.6283C9.66222 23.3861 9.99076 23.25 10.3333 23.25H20.6667C21.0092 23.25 21.3378 23.3861 21.58 23.6283C21.8223 23.8706 21.9583 24.1991 21.9583 24.5417ZM25.234 4.03131L23.0924 1.89231C22.4942 1.29072 21.7826 0.813721 20.9989 0.488913C20.2151 0.164105 19.3748 -0.00206405 18.5264 1.93507e-05H10.3333C8.62111 0.00207033 6.9796 0.683159 5.76887 1.89389C4.55814 3.10462 3.87705 4.74613 3.875 6.45835V24.5417C3.87705 26.2539 4.55814 27.8954 5.76887 29.1062C6.9796 30.3169 8.62111 30.998 10.3333 31H20.6667C22.3789 30.998 24.0204 30.3169 25.2311 29.1062C26.4419 27.8954 27.1229 26.2539 27.125 24.5417V8.59864C27.1274 7.75013 26.9615 6.90956 26.637 6.12558C26.3124 5.3416 25.8355 4.62978 25.234 4.03131ZM23.4076 5.85773C23.5893 6.0417 23.7529 6.24285 23.8958 6.45835H20.6667V3.22919C20.8825 3.37066 21.0833 3.53383 21.266 3.71614L23.4076 5.85773ZM24.5417 24.5417C24.5417 25.5694 24.1334 26.555 23.4067 27.2817C22.68 28.0084 21.6944 28.4167 20.6667 28.4167H10.3333C9.30562 28.4167 8.32 28.0084 7.59329 27.2817C6.86659 26.555 6.45833 25.5694 6.45833 24.5417V6.45835C6.45833 5.43064 6.86659 4.44502 7.59329 3.71831C8.32 2.99161 9.30562 2.58335 10.3333 2.58335H18.0833V6.45835C18.0833 7.1435 18.3555 7.80058 18.84 8.28505C19.3244 8.76952 19.9815 9.04169 20.6667 9.04169H24.5417V24.5417Z" fill="#595959"/>
</g>
<defs>
<clipPath id="clip0">
<rect width="31" height="31" fill="white"/>
</clipPath>
</defs>
</svg>
