<svg width="23" height="23" viewBox="0 0 23 23" fill="none" xmlns="http://www.w3.org/2000/svg">
<path d="M10.1251 17.625C11.1101 17.625 12.0853 17.431 12.9953 17.0541C13.9052 16.6772 14.732 16.1248 15.4284 15.4283C16.1249 14.7319 16.6773 13.9051 17.0542 12.9951C17.4311 12.0852 17.6251 11.1099 17.6251 10.125C17.6251 9.1401 17.4311 8.16483 17.0542 7.25489C16.6773 6.34495 16.1249 5.51816 15.4284 4.82172C14.732 4.12528 13.9052 3.57283 12.9953 3.19592C12.0853 2.81901 11.1101 2.62502 10.1251 2.62502C8.13602 2.62502 6.22836 3.41519 4.82184 4.82172C3.41532 6.22824 2.62514 8.13589 2.62514 10.125C2.62514 12.1141 3.41532 14.0218 4.82184 15.4283C6.22836 16.8348 8.13602 17.625 10.1251 17.625ZM18.0251 16.2575L22.5001 20.7325C22.6194 20.8479 22.7146 20.9859 22.78 21.1385C22.8454 21.291 22.8797 21.4551 22.8811 21.621C22.8824 21.787 22.8506 21.9516 22.7877 22.1052C22.7247 22.2587 22.6318 22.3982 22.5144 22.5155C22.3969 22.6328 22.2573 22.7255 22.1036 22.7882C21.95 22.851 21.7853 22.8825 21.6194 22.8809C21.4534 22.8794 21.2894 22.8448 21.1369 22.7792C20.9845 22.7136 20.8466 22.6182 20.7314 22.4988L16.2564 18.0238C14.247 19.5836 11.7186 20.319 9.18608 20.0803C6.65353 19.8415 4.30715 18.6467 2.62458 16.7388C0.942012 14.831 0.0497466 12.3537 0.129423 9.81117C0.209099 7.26864 1.25473 4.85205 3.05345 3.05333C4.85217 1.25461 7.26877 0.208977 9.8113 0.129301C12.3538 0.0496246 14.8312 0.941889 16.739 2.62446C18.6468 4.30702 19.8417 6.65341 20.0804 9.18596C20.3191 11.7185 19.5837 14.2468 18.0239 16.2563L18.0251 16.2575Z" fill="black"/>
</svg>
