<svg width="132" height="88" viewBox="0 0 132 88" fill="none" xmlns="http://www.w3.org/2000/svg">
<path d="M132.799 0.319305H0V87.4258H132.799V0.319305Z" fill="white"/>
<path d="M132.799 0.319305H130.487L124.432 4.29089L98.7084 21.1636L84.8661 12.0846L102.802 0.319305H98.1782L83.7103 9.8092V0.319305H81.3978V11.3253L67.5555 20.4044V0.319305H65.2429V20.4056L51.4017 11.3265V0.319305H49.0891V9.8092L34.6212 0.319305H29.9971L47.9333 12.0846L42.5249 15.6324L34.0911 21.1636L2.31258 0.319305H0V87.4258H2.31258L1.15681 86.6677V68.5084L29.9971 87.4258H34.6212L2.31258 66.233L8.65583 62.0719L16.1548 57.1527L32.3097 67.7491L49.0901 78.7552V87.4258H51.4027V77.2402V55.227L65.245 46.1479V87.4258H67.5576V46.1479L81.3998 55.227V77.2402V87.4258H83.7124V78.7563L107.994 62.83L116.648 57.1539L128.975 65.2395L130.489 66.233L98.1782 87.4258H102.802L131.643 68.5084V86.6677L130.487 87.4258H132.799V0.319305ZM14.998 33.687V54.8786L14.7542 55.0387L1.15577 63.9588V2.59467L14.998 11.6738V33.687ZM17.3106 13.1899L31.7785 22.6798L17.3106 32.1697V13.1899ZM17.3106 35.2031L48.9158 14.4729L50.2459 13.6007L50.6578 13.8714L64.0882 22.6809L17.3106 53.3624V35.2031ZM49.0891 75.7241L34.6212 66.233L49.0891 56.7431V75.7241ZM65.2439 43.1145L32.3087 64.7169L18.4664 55.6378L65.2439 24.9551V43.1145ZM83.7103 75.7241V56.7431L98.1782 66.233L83.7103 75.7241ZM109.191 59.0102L100.49 64.7169L67.5555 43.1145V24.9551L114.332 55.6378L109.191 59.0102ZM115.489 53.3624L68.7123 22.6809L76.5827 17.5193L82.5546 13.6019L83.7892 14.4117L115.489 35.2043V53.3624ZM115.489 32.1708L101.021 22.6809L115.489 13.1911V32.1708ZM131.644 63.9588L125.3 59.7977L117.801 54.8786V33.687V11.6738L130.636 3.25503L131.644 2.59467V63.9588Z" fill="#EBEBEB"/>
</svg>
