<svg width="31" height="31" viewBox="0 0 31 31" fill="none" xmlns="http://www.w3.org/2000/svg">
<g clip-path="url(#clip0)">
<path d="M24.5417 1.29175H6.45833C4.74611 1.2938 3.1046 1.97489 1.89387 3.18562C0.683139 4.39634 0.00205098 6.03785 0 7.75008L0 23.2501C0.00205098 24.9623 0.683139 26.6038 1.89387 27.8146C3.1046 29.0253 4.74611 29.7064 6.45833 29.7084H24.5417C26.2539 29.7064 27.8954 29.0253 29.1061 27.8146C30.3169 26.6038 30.9979 24.9623 31 23.2501V7.75008C30.9979 6.03785 30.3169 4.39634 29.1061 3.18562C27.8954 1.97489 26.2539 1.2938 24.5417 1.29175ZM6.45833 3.87508H24.5417C25.3151 3.8766 26.0704 4.10954 26.7103 4.54391C27.3502 4.97829 27.8456 5.59422 28.1325 6.31246L18.2409 16.2053C17.513 16.9304 16.5274 17.3374 15.5 17.3374C14.4726 17.3374 13.487 16.9304 12.7591 16.2053L2.8675 6.31246C3.15444 5.59422 3.64975 4.97829 4.28969 4.54391C4.92962 4.10954 5.6849 3.8766 6.45833 3.87508ZM24.5417 27.1251H6.45833C5.43062 27.1251 4.445 26.7168 3.71829 25.9901C2.99159 25.2634 2.58333 24.2778 2.58333 23.2501V9.68758L10.9327 18.0317C12.1451 19.2411 13.7876 19.9202 15.5 19.9202C17.2124 19.9202 18.8549 19.2411 20.0673 18.0317L28.4167 9.68758V23.2501C28.4167 24.2778 28.0084 25.2634 27.2817 25.9901C26.555 26.7168 25.5694 27.1251 24.5417 27.1251Z" fill="#595959"/>
</g>
<defs>
<clipPath id="clip0">
<rect width="31" height="31" fill="white"/>
</clipPath>
</defs>
</svg>
