<svg width="31" height="31" viewBox="0 0 31 31" fill="none" xmlns="http://www.w3.org/2000/svg">
<path d="M29.7082 3.87505C28.4713 4.74754 27.1017 5.41486 25.6523 5.8513C24.8744 4.95683 23.8406 4.32286 22.6906 4.03512C21.5406 3.74738 20.33 3.81976 19.2225 4.24247C18.115 4.66518 17.1641 5.41782 16.4983 6.3986C15.8325 7.37938 15.4839 8.54098 15.4998 9.7263V11.018C13.2299 11.0768 10.9806 10.5734 8.95239 9.5525C6.92413 8.53161 5.17983 7.02495 3.87484 5.16672C3.87484 5.16672 -1.29183 16.7917 10.3332 21.9584C7.67302 23.7641 4.50408 24.6695 1.2915 24.5417C12.9165 31 27.1248 24.5417 27.1248 9.68755C27.1236 9.32776 27.0891 8.96886 27.0215 8.61547C28.3398 7.31539 29.2701 5.67397 29.7082 3.87505V3.87505Z" stroke="#595959" stroke-width="2.5" stroke-linecap="round" stroke-linejoin="round"/>
</svg>
